<mxfile host="app.diagrams.net" modified="2024-01-18T15:52:19.120Z" agent="Mozilla/5.0 (Windows NT 10.0; Win64; x64) AppleWebKit/537.36 (KHTML, like Gecko) Chrome/120.0.0.0 Safari/537.36" etag="_RLjXS6r8vIbLr9KrYfN" version="22.1.18" type="device" pages="2">
  <diagram name="Página-1" id="YIuxpg4yU5HesPBRL2w0">
    <mxGraphModel dx="1566" dy="671" grid="1" gridSize="10" guides="1" tooltips="1" connect="1" arrows="1" fold="1" page="1" pageScale="1" pageWidth="827" pageHeight="1169" math="0" shadow="0">
      <root>
        <mxCell id="0" />
        <mxCell id="1" parent="0" />
        <mxCell id="h7QQ7sJ4i0Wc6xQ3Fgic-2" value="Actor" style="shape=umlActor;verticalLabelPosition=bottom;verticalAlign=top;html=1;outlineConnect=0;" parent="1" vertex="1">
          <mxGeometry x="90" y="525" width="30" height="60" as="geometry" />
        </mxCell>
        <mxCell id="h7QQ7sJ4i0Wc6xQ3Fgic-3" value="Pesquisar Video" style="ellipse;whiteSpace=wrap;html=1;" parent="1" vertex="1">
          <mxGeometry x="320" y="330" width="120" height="80" as="geometry" />
        </mxCell>
        <mxCell id="h7QQ7sJ4i0Wc6xQ3Fgic-4" value="Abrir Video" style="ellipse;whiteSpace=wrap;html=1;" parent="1" vertex="1">
          <mxGeometry x="320" y="470" width="120" height="80" as="geometry" />
        </mxCell>
        <mxCell id="h7QQ7sJ4i0Wc6xQ3Fgic-5" value="Comentar Video" style="ellipse;whiteSpace=wrap;html=1;" parent="1" vertex="1">
          <mxGeometry x="320" y="630" width="120" height="80" as="geometry" />
        </mxCell>
        <mxCell id="h7QQ7sJ4i0Wc6xQ3Fgic-6" value="Dar Like/Deslike" style="ellipse;whiteSpace=wrap;html=1;" parent="1" vertex="1">
          <mxGeometry x="330" y="770" width="120" height="80" as="geometry" />
        </mxCell>
        <mxCell id="h7QQ7sJ4i0Wc6xQ3Fgic-7" value="Login" style="ellipse;whiteSpace=wrap;html=1;" parent="1" vertex="1">
          <mxGeometry x="580" y="505" width="120" height="80" as="geometry" />
        </mxCell>
        <mxCell id="h7QQ7sJ4i0Wc6xQ3Fgic-9" value="" style="endArrow=classic;html=1;rounded=0;exitX=0.5;exitY=0.5;exitDx=0;exitDy=0;exitPerimeter=0;" parent="1" source="h7QQ7sJ4i0Wc6xQ3Fgic-2" target="h7QQ7sJ4i0Wc6xQ3Fgic-3" edge="1">
          <mxGeometry width="50" height="50" relative="1" as="geometry">
            <mxPoint x="250" y="590" as="sourcePoint" />
            <mxPoint x="300" y="540" as="targetPoint" />
          </mxGeometry>
        </mxCell>
        <mxCell id="h7QQ7sJ4i0Wc6xQ3Fgic-10" value="" style="endArrow=classic;html=1;rounded=0;exitX=0.5;exitY=0.5;exitDx=0;exitDy=0;exitPerimeter=0;" parent="1" target="h7QQ7sJ4i0Wc6xQ3Fgic-4" edge="1">
          <mxGeometry width="50" height="50" relative="1" as="geometry">
            <mxPoint x="115" y="565" as="sourcePoint" />
            <mxPoint x="348" y="408" as="targetPoint" />
          </mxGeometry>
        </mxCell>
        <mxCell id="h7QQ7sJ4i0Wc6xQ3Fgic-11" value="" style="endArrow=classic;html=1;rounded=0;exitX=1;exitY=1;exitDx=0;exitDy=0;exitPerimeter=0;" parent="1" source="h7QQ7sJ4i0Wc6xQ3Fgic-2" target="h7QQ7sJ4i0Wc6xQ3Fgic-5" edge="1">
          <mxGeometry width="50" height="50" relative="1" as="geometry">
            <mxPoint x="125" y="575" as="sourcePoint" />
            <mxPoint x="358" y="418" as="targetPoint" />
          </mxGeometry>
        </mxCell>
        <mxCell id="h7QQ7sJ4i0Wc6xQ3Fgic-12" value="" style="endArrow=classic;html=1;rounded=0;exitX=0;exitY=1;exitDx=0;exitDy=0;exitPerimeter=0;" parent="1" source="h7QQ7sJ4i0Wc6xQ3Fgic-2" target="h7QQ7sJ4i0Wc6xQ3Fgic-6" edge="1">
          <mxGeometry width="50" height="50" relative="1" as="geometry">
            <mxPoint x="110" y="620" as="sourcePoint" />
            <mxPoint x="336" y="662" as="targetPoint" />
          </mxGeometry>
        </mxCell>
        <mxCell id="h7QQ7sJ4i0Wc6xQ3Fgic-13" value="Includes" style="endArrow=open;endSize=12;dashed=1;html=1;rounded=0;" parent="1" source="h7QQ7sJ4i0Wc6xQ3Fgic-7" target="h7QQ7sJ4i0Wc6xQ3Fgic-5" edge="1">
          <mxGeometry x="0.075" y="14" width="160" relative="1" as="geometry">
            <mxPoint x="450" y="600" as="sourcePoint" />
            <mxPoint x="610" y="600" as="targetPoint" />
            <Array as="points">
              <mxPoint x="540" y="590" />
            </Array>
            <mxPoint as="offset" />
          </mxGeometry>
        </mxCell>
        <mxCell id="h7QQ7sJ4i0Wc6xQ3Fgic-15" style="edgeStyle=orthogonalEdgeStyle;rounded=0;orthogonalLoop=1;jettySize=auto;html=1;exitX=0.5;exitY=1;exitDx=0;exitDy=0;" parent="1" source="h7QQ7sJ4i0Wc6xQ3Fgic-4" target="h7QQ7sJ4i0Wc6xQ3Fgic-4" edge="1">
          <mxGeometry relative="1" as="geometry" />
        </mxCell>
        <mxCell id="h7QQ7sJ4i0Wc6xQ3Fgic-17" value="Includes" style="endArrow=open;endSize=12;dashed=1;html=1;rounded=0;exitX=0.692;exitY=0.975;exitDx=0;exitDy=0;exitPerimeter=0;" parent="1" source="h7QQ7sJ4i0Wc6xQ3Fgic-7" target="h7QQ7sJ4i0Wc6xQ3Fgic-6" edge="1">
          <mxGeometry x="0.075" y="14" width="160" relative="1" as="geometry">
            <mxPoint x="573" y="596" as="sourcePoint" />
            <mxPoint x="441" y="659" as="targetPoint" />
            <Array as="points" />
            <mxPoint as="offset" />
          </mxGeometry>
        </mxCell>
        <mxCell id="h7QQ7sJ4i0Wc6xQ3Fgic-18" value="Extends" style="endArrow=open;endSize=12;dashed=1;html=1;rounded=0;" parent="1" source="h7QQ7sJ4i0Wc6xQ3Fgic-3" target="h7QQ7sJ4i0Wc6xQ3Fgic-4" edge="1">
          <mxGeometry y="40" width="160" relative="1" as="geometry">
            <mxPoint x="605" y="567" as="sourcePoint" />
            <mxPoint x="438" y="656" as="targetPoint" />
            <Array as="points" />
            <mxPoint as="offset" />
          </mxGeometry>
        </mxCell>
        <mxCell id="h7QQ7sJ4i0Wc6xQ3Fgic-19" value="Actor" style="shape=umlActor;verticalLabelPosition=bottom;verticalAlign=top;html=1;outlineConnect=0;" parent="1" vertex="1">
          <mxGeometry x="240" y="1100" width="30" height="60" as="geometry" />
        </mxCell>
        <mxCell id="h7QQ7sJ4i0Wc6xQ3Fgic-20" value="Upload Video" style="ellipse;whiteSpace=wrap;html=1;" parent="1" vertex="1">
          <mxGeometry x="400" y="1040" width="120" height="80" as="geometry" />
        </mxCell>
        <mxCell id="h7QQ7sJ4i0Wc6xQ3Fgic-22" value="Painel de Controlo" style="ellipse;whiteSpace=wrap;html=1;" parent="1" vertex="1">
          <mxGeometry x="590" y="1030" width="120" height="80" as="geometry" />
        </mxCell>
        <mxCell id="h7QQ7sJ4i0Wc6xQ3Fgic-23" value="Edição Video" style="ellipse;whiteSpace=wrap;html=1;" parent="1" vertex="1">
          <mxGeometry x="400" y="1200" width="120" height="80" as="geometry" />
        </mxCell>
        <mxCell id="h7QQ7sJ4i0Wc6xQ3Fgic-25" value="" style="endArrow=classic;html=1;rounded=0;exitX=0.5;exitY=0.5;exitDx=0;exitDy=0;exitPerimeter=0;" parent="1" target="h7QQ7sJ4i0Wc6xQ3Fgic-7" edge="1">
          <mxGeometry width="50" height="50" relative="1" as="geometry">
            <mxPoint x="125" y="575" as="sourcePoint" />
            <mxPoint x="333" y="532" as="targetPoint" />
          </mxGeometry>
        </mxCell>
        <mxCell id="h7QQ7sJ4i0Wc6xQ3Fgic-26" value="Extends" style="endArrow=open;endSize=12;dashed=1;html=1;rounded=0;" parent="1" source="h7QQ7sJ4i0Wc6xQ3Fgic-20" target="h7QQ7sJ4i0Wc6xQ3Fgic-23" edge="1">
          <mxGeometry y="40" width="160" relative="1" as="geometry">
            <mxPoint x="823" y="723" as="sourcePoint" />
            <mxPoint x="588" y="919" as="targetPoint" />
            <Array as="points" />
            <mxPoint as="offset" />
          </mxGeometry>
        </mxCell>
        <mxCell id="h7QQ7sJ4i0Wc6xQ3Fgic-27" value="Includes" style="endArrow=open;endSize=12;dashed=1;html=1;rounded=0;entryX=0.95;entryY=0.3;entryDx=0;entryDy=0;entryPerimeter=0;" parent="1" source="h7QQ7sJ4i0Wc6xQ3Fgic-22" target="h7QQ7sJ4i0Wc6xQ3Fgic-20" edge="1">
          <mxGeometry x="0.075" y="14" width="160" relative="1" as="geometry">
            <mxPoint x="660.0254339083151" y="1061.164554681392" as="sourcePoint" />
            <mxPoint x="588" y="919" as="targetPoint" />
            <Array as="points" />
            <mxPoint as="offset" />
          </mxGeometry>
        </mxCell>
        <mxCell id="h7QQ7sJ4i0Wc6xQ3Fgic-29" value="Login" style="ellipse;whiteSpace=wrap;html=1;" parent="1" vertex="1">
          <mxGeometry x="580" y="880" width="120" height="80" as="geometry" />
        </mxCell>
        <mxCell id="h7QQ7sJ4i0Wc6xQ3Fgic-30" value="Includes" style="endArrow=open;endSize=12;dashed=1;html=1;rounded=0;" parent="1" source="h7QQ7sJ4i0Wc6xQ3Fgic-29" target="h7QQ7sJ4i0Wc6xQ3Fgic-22" edge="1">
          <mxGeometry x="0.075" y="14" width="160" relative="1" as="geometry">
            <mxPoint x="620" y="1072" as="sourcePoint" />
            <mxPoint x="524" y="1074" as="targetPoint" />
            <Array as="points" />
            <mxPoint as="offset" />
          </mxGeometry>
        </mxCell>
        <mxCell id="h7QQ7sJ4i0Wc6xQ3Fgic-31" value="" style="endArrow=classic;html=1;rounded=0;exitX=0.75;exitY=0.1;exitDx=0;exitDy=0;exitPerimeter=0;" parent="1" source="h7QQ7sJ4i0Wc6xQ3Fgic-19" target="h7QQ7sJ4i0Wc6xQ3Fgic-29" edge="1">
          <mxGeometry width="50" height="50" relative="1" as="geometry">
            <mxPoint x="280" y="1136" as="sourcePoint" />
            <mxPoint x="414" y="1104" as="targetPoint" />
          </mxGeometry>
        </mxCell>
        <mxCell id="h7QQ7sJ4i0Wc6xQ3Fgic-33" value="" style="endArrow=classic;html=1;rounded=0;" parent="1" edge="1">
          <mxGeometry width="50" height="50" relative="1" as="geometry">
            <mxPoint x="280" y="1136" as="sourcePoint" />
            <mxPoint x="414" y="1104" as="targetPoint" />
          </mxGeometry>
        </mxCell>
        <mxCell id="h7QQ7sJ4i0Wc6xQ3Fgic-34" value="Utilizador" style="swimlane;fontStyle=1;align=center;verticalAlign=top;childLayout=stackLayout;horizontal=1;startSize=26;horizontalStack=0;resizeParent=1;resizeParentMax=0;resizeLast=0;collapsible=1;marginBottom=0;whiteSpace=wrap;html=1;" parent="1" vertex="1">
          <mxGeometry x="1170" y="534" width="160" height="184" as="geometry" />
        </mxCell>
        <mxCell id="h7QQ7sJ4i0Wc6xQ3Fgic-35" value="Nome&lt;br&gt;" style="text;strokeColor=none;fillColor=none;align=left;verticalAlign=top;spacingLeft=4;spacingRight=4;overflow=hidden;rotatable=0;points=[[0,0.5],[1,0.5]];portConstraint=eastwest;whiteSpace=wrap;html=1;" parent="h7QQ7sJ4i0Wc6xQ3Fgic-34" vertex="1">
          <mxGeometry y="26" width="160" height="24" as="geometry" />
        </mxCell>
        <mxCell id="h7QQ7sJ4i0Wc6xQ3Fgic-80" value="Email" style="text;strokeColor=none;fillColor=none;align=left;verticalAlign=top;spacingLeft=4;spacingRight=4;overflow=hidden;rotatable=0;points=[[0,0.5],[1,0.5]];portConstraint=eastwest;whiteSpace=wrap;html=1;" parent="h7QQ7sJ4i0Wc6xQ3Fgic-34" vertex="1">
          <mxGeometry y="50" width="160" height="24" as="geometry" />
        </mxCell>
        <mxCell id="h7QQ7sJ4i0Wc6xQ3Fgic-79" value="ID" style="text;strokeColor=none;fillColor=none;align=left;verticalAlign=top;spacingLeft=4;spacingRight=4;overflow=hidden;rotatable=0;points=[[0,0.5],[1,0.5]];portConstraint=eastwest;whiteSpace=wrap;html=1;" parent="h7QQ7sJ4i0Wc6xQ3Fgic-34" vertex="1">
          <mxGeometry y="74" width="160" height="24" as="geometry" />
        </mxCell>
        <mxCell id="h7QQ7sJ4i0Wc6xQ3Fgic-36" value="" style="line;strokeWidth=1;fillColor=none;align=left;verticalAlign=middle;spacingTop=-1;spacingLeft=3;spacingRight=3;rotatable=0;labelPosition=right;points=[];portConstraint=eastwest;strokeColor=inherit;" parent="h7QQ7sJ4i0Wc6xQ3Fgic-34" vertex="1">
          <mxGeometry y="98" width="160" height="8" as="geometry" />
        </mxCell>
        <mxCell id="h7QQ7sJ4i0Wc6xQ3Fgic-37" value="+ Pequisar()" style="text;strokeColor=none;fillColor=none;align=left;verticalAlign=top;spacingLeft=4;spacingRight=4;overflow=hidden;rotatable=0;points=[[0,0.5],[1,0.5]];portConstraint=eastwest;whiteSpace=wrap;html=1;" parent="h7QQ7sJ4i0Wc6xQ3Fgic-34" vertex="1">
          <mxGeometry y="106" width="160" height="26" as="geometry" />
        </mxCell>
        <mxCell id="h7QQ7sJ4i0Wc6xQ3Fgic-46" value="+Reproduzir_Video()" style="text;strokeColor=none;fillColor=none;align=left;verticalAlign=top;spacingLeft=4;spacingRight=4;overflow=hidden;rotatable=0;points=[[0,0.5],[1,0.5]];portConstraint=eastwest;whiteSpace=wrap;html=1;" parent="h7QQ7sJ4i0Wc6xQ3Fgic-34" vertex="1">
          <mxGeometry y="132" width="160" height="26" as="geometry" />
        </mxCell>
        <mxCell id="h7QQ7sJ4i0Wc6xQ3Fgic-47" value="+Login()" style="text;strokeColor=none;fillColor=none;align=left;verticalAlign=top;spacingLeft=4;spacingRight=4;overflow=hidden;rotatable=0;points=[[0,0.5],[1,0.5]];portConstraint=eastwest;whiteSpace=wrap;html=1;" parent="h7QQ7sJ4i0Wc6xQ3Fgic-34" vertex="1">
          <mxGeometry y="158" width="160" height="26" as="geometry" />
        </mxCell>
        <mxCell id="h7QQ7sJ4i0Wc6xQ3Fgic-38" value="Criador de Conteúdo" style="swimlane;fontStyle=1;align=center;verticalAlign=top;childLayout=stackLayout;horizontal=1;startSize=26;horizontalStack=0;resizeParent=1;resizeParentMax=0;resizeLast=0;collapsible=1;marginBottom=0;whiteSpace=wrap;html=1;" parent="1" vertex="1">
          <mxGeometry x="1170" y="786" width="160" height="78" as="geometry" />
        </mxCell>
        <mxCell id="h7QQ7sJ4i0Wc6xQ3Fgic-39" value="Numero videos" style="text;strokeColor=none;fillColor=none;align=left;verticalAlign=top;spacingLeft=4;spacingRight=4;overflow=hidden;rotatable=0;points=[[0,0.5],[1,0.5]];portConstraint=eastwest;whiteSpace=wrap;html=1;" parent="h7QQ7sJ4i0Wc6xQ3Fgic-38" vertex="1">
          <mxGeometry y="26" width="160" height="26" as="geometry" />
        </mxCell>
        <mxCell id="h7QQ7sJ4i0Wc6xQ3Fgic-82" value="Ganhos" style="text;strokeColor=none;fillColor=none;align=left;verticalAlign=top;spacingLeft=4;spacingRight=4;overflow=hidden;rotatable=0;points=[[0,0.5],[1,0.5]];portConstraint=eastwest;whiteSpace=wrap;html=1;" parent="h7QQ7sJ4i0Wc6xQ3Fgic-38" vertex="1">
          <mxGeometry y="52" width="160" height="26" as="geometry" />
        </mxCell>
        <mxCell id="h7QQ7sJ4i0Wc6xQ3Fgic-48" value="Video" style="swimlane;fontStyle=0;childLayout=stackLayout;horizontal=1;startSize=26;fillColor=none;horizontalStack=0;resizeParent=1;resizeParentMax=0;resizeLast=0;collapsible=1;marginBottom=0;whiteSpace=wrap;html=1;" parent="1" vertex="1">
          <mxGeometry x="1580" y="592" width="140" height="156" as="geometry" />
        </mxCell>
        <mxCell id="h7QQ7sJ4i0Wc6xQ3Fgic-49" value="Título" style="text;strokeColor=none;fillColor=none;align=left;verticalAlign=top;spacingLeft=4;spacingRight=4;overflow=hidden;rotatable=0;points=[[0,0.5],[1,0.5]];portConstraint=eastwest;whiteSpace=wrap;html=1;" parent="h7QQ7sJ4i0Wc6xQ3Fgic-48" vertex="1">
          <mxGeometry y="26" width="140" height="26" as="geometry" />
        </mxCell>
        <mxCell id="h7QQ7sJ4i0Wc6xQ3Fgic-50" value="Autor" style="text;strokeColor=none;fillColor=none;align=left;verticalAlign=top;spacingLeft=4;spacingRight=4;overflow=hidden;rotatable=0;points=[[0,0.5],[1,0.5]];portConstraint=eastwest;whiteSpace=wrap;html=1;" parent="h7QQ7sJ4i0Wc6xQ3Fgic-48" vertex="1">
          <mxGeometry y="52" width="140" height="26" as="geometry" />
        </mxCell>
        <mxCell id="h7QQ7sJ4i0Wc6xQ3Fgic-51" value="Descrição" style="text;strokeColor=none;fillColor=none;align=left;verticalAlign=top;spacingLeft=4;spacingRight=4;overflow=hidden;rotatable=0;points=[[0,0.5],[1,0.5]];portConstraint=eastwest;whiteSpace=wrap;html=1;" parent="h7QQ7sJ4i0Wc6xQ3Fgic-48" vertex="1">
          <mxGeometry y="78" width="140" height="26" as="geometry" />
        </mxCell>
        <mxCell id="h7QQ7sJ4i0Wc6xQ3Fgic-60" value="Visibilidade" style="text;strokeColor=none;fillColor=none;align=left;verticalAlign=top;spacingLeft=4;spacingRight=4;overflow=hidden;rotatable=0;points=[[0,0.5],[1,0.5]];portConstraint=eastwest;whiteSpace=wrap;html=1;" parent="h7QQ7sJ4i0Wc6xQ3Fgic-48" vertex="1">
          <mxGeometry y="104" width="140" height="26" as="geometry" />
        </mxCell>
        <mxCell id="h7QQ7sJ4i0Wc6xQ3Fgic-61" value="Miniatura" style="text;strokeColor=none;fillColor=none;align=left;verticalAlign=top;spacingLeft=4;spacingRight=4;overflow=hidden;rotatable=0;points=[[0,0.5],[1,0.5]];portConstraint=eastwest;whiteSpace=wrap;html=1;" parent="h7QQ7sJ4i0Wc6xQ3Fgic-48" vertex="1">
          <mxGeometry y="130" width="140" height="26" as="geometry" />
        </mxCell>
        <mxCell id="h7QQ7sJ4i0Wc6xQ3Fgic-52" value="Visualização Video" style="swimlane;fontStyle=0;childLayout=stackLayout;horizontal=1;startSize=26;fillColor=none;horizontalStack=0;resizeParent=1;resizeParentMax=0;resizeLast=0;collapsible=1;marginBottom=0;whiteSpace=wrap;html=1;" parent="1" vertex="1">
          <mxGeometry x="1380" y="366" width="140" height="104" as="geometry" />
        </mxCell>
        <mxCell id="h7QQ7sJ4i0Wc6xQ3Fgic-53" value="Tempo&amp;nbsp;" style="text;strokeColor=none;fillColor=none;align=left;verticalAlign=top;spacingLeft=4;spacingRight=4;overflow=hidden;rotatable=0;points=[[0,0.5],[1,0.5]];portConstraint=eastwest;whiteSpace=wrap;html=1;" parent="h7QQ7sJ4i0Wc6xQ3Fgic-52" vertex="1">
          <mxGeometry y="26" width="140" height="26" as="geometry" />
        </mxCell>
        <mxCell id="h7QQ7sJ4i0Wc6xQ3Fgic-54" value="Like/Deslike" style="text;strokeColor=none;fillColor=none;align=left;verticalAlign=top;spacingLeft=4;spacingRight=4;overflow=hidden;rotatable=0;points=[[0,0.5],[1,0.5]];portConstraint=eastwest;whiteSpace=wrap;html=1;" parent="h7QQ7sJ4i0Wc6xQ3Fgic-52" vertex="1">
          <mxGeometry y="52" width="140" height="26" as="geometry" />
        </mxCell>
        <mxCell id="h7QQ7sJ4i0Wc6xQ3Fgic-55" value="Comentário" style="text;strokeColor=none;fillColor=none;align=left;verticalAlign=top;spacingLeft=4;spacingRight=4;overflow=hidden;rotatable=0;points=[[0,0.5],[1,0.5]];portConstraint=eastwest;whiteSpace=wrap;html=1;" parent="h7QQ7sJ4i0Wc6xQ3Fgic-52" vertex="1">
          <mxGeometry y="78" width="140" height="26" as="geometry" />
        </mxCell>
        <mxCell id="h7QQ7sJ4i0Wc6xQ3Fgic-56" value="Visto" style="endArrow=open;html=1;endSize=12;startArrow=diamondThin;startSize=14;startFill=0;edgeStyle=orthogonalEdgeStyle;rounded=0;entryX=-0.021;entryY=0.183;entryDx=0;entryDy=0;entryPerimeter=0;" parent="1" source="h7QQ7sJ4i0Wc6xQ3Fgic-34" target="h7QQ7sJ4i0Wc6xQ3Fgic-48" edge="1">
          <mxGeometry relative="1" as="geometry">
            <mxPoint x="1230" y="554" as="sourcePoint" />
            <mxPoint x="1390" y="534" as="targetPoint" />
            <Array as="points">
              <mxPoint x="1577" y="626" />
            </Array>
          </mxGeometry>
        </mxCell>
        <mxCell id="h7QQ7sJ4i0Wc6xQ3Fgic-57" value="0..n" style="edgeLabel;resizable=0;html=1;align=left;verticalAlign=top;" parent="h7QQ7sJ4i0Wc6xQ3Fgic-56" connectable="0" vertex="1">
          <mxGeometry x="-1" relative="1" as="geometry" />
        </mxCell>
        <mxCell id="h7QQ7sJ4i0Wc6xQ3Fgic-58" value="0..n" style="edgeLabel;resizable=0;html=1;align=right;verticalAlign=top;" parent="h7QQ7sJ4i0Wc6xQ3Fgic-56" connectable="0" vertex="1">
          <mxGeometry x="1" relative="1" as="geometry" />
        </mxCell>
        <mxCell id="h7QQ7sJ4i0Wc6xQ3Fgic-59" value="" style="endArrow=block;dashed=1;endFill=0;endSize=12;html=1;rounded=0;" parent="1" target="h7QQ7sJ4i0Wc6xQ3Fgic-55" edge="1">
          <mxGeometry width="160" relative="1" as="geometry">
            <mxPoint x="1450" y="594" as="sourcePoint" />
            <mxPoint x="1230" y="534" as="targetPoint" />
            <Array as="points">
              <mxPoint x="1450" y="600" />
            </Array>
          </mxGeometry>
        </mxCell>
        <mxCell id="h7QQ7sJ4i0Wc6xQ3Fgic-62" value="" style="endArrow=block;startArrow=none;endFill=0;startFill=0;endSize=8;html=1;verticalAlign=bottom;labelBackgroundColor=none;rounded=0;" parent="1" source="h7QQ7sJ4i0Wc6xQ3Fgic-38" target="h7QQ7sJ4i0Wc6xQ3Fgic-34" edge="1">
          <mxGeometry width="160" relative="1" as="geometry">
            <mxPoint x="1230" y="834" as="sourcePoint" />
            <mxPoint x="1390" y="834" as="targetPoint" />
          </mxGeometry>
        </mxCell>
        <mxCell id="h7QQ7sJ4i0Wc6xQ3Fgic-64" value="Login" style="swimlane;fontStyle=0;childLayout=stackLayout;horizontal=1;startSize=26;fillColor=none;horizontalStack=0;resizeParent=1;resizeParentMax=0;resizeLast=0;collapsible=1;marginBottom=0;whiteSpace=wrap;html=1;" parent="1" vertex="1">
          <mxGeometry x="840" y="574" width="140" height="104" as="geometry" />
        </mxCell>
        <mxCell id="h7QQ7sJ4i0Wc6xQ3Fgic-65" value="Email" style="text;strokeColor=none;fillColor=none;align=left;verticalAlign=top;spacingLeft=4;spacingRight=4;overflow=hidden;rotatable=0;points=[[0,0.5],[1,0.5]];portConstraint=eastwest;whiteSpace=wrap;html=1;" parent="h7QQ7sJ4i0Wc6xQ3Fgic-64" vertex="1">
          <mxGeometry y="26" width="140" height="26" as="geometry" />
        </mxCell>
        <mxCell id="h7QQ7sJ4i0Wc6xQ3Fgic-66" value="Pass" style="text;strokeColor=none;fillColor=none;align=left;verticalAlign=top;spacingLeft=4;spacingRight=4;overflow=hidden;rotatable=0;points=[[0,0.5],[1,0.5]];portConstraint=eastwest;whiteSpace=wrap;html=1;" parent="h7QQ7sJ4i0Wc6xQ3Fgic-64" vertex="1">
          <mxGeometry y="52" width="140" height="26" as="geometry" />
        </mxCell>
        <mxCell id="h7QQ7sJ4i0Wc6xQ3Fgic-67" value="Credencial" style="text;strokeColor=none;fillColor=none;align=left;verticalAlign=top;spacingLeft=4;spacingRight=4;overflow=hidden;rotatable=0;points=[[0,0.5],[1,0.5]];portConstraint=eastwest;whiteSpace=wrap;html=1;" parent="h7QQ7sJ4i0Wc6xQ3Fgic-64" vertex="1">
          <mxGeometry y="78" width="140" height="26" as="geometry" />
        </mxCell>
        <mxCell id="h7QQ7sJ4i0Wc6xQ3Fgic-68" value="Aceder" style="endArrow=open;html=1;endSize=12;startArrow=diamondThin;startSize=14;startFill=0;edgeStyle=orthogonalEdgeStyle;rounded=0;" parent="1" source="h7QQ7sJ4i0Wc6xQ3Fgic-64" target="h7QQ7sJ4i0Wc6xQ3Fgic-34" edge="1">
          <mxGeometry relative="1" as="geometry">
            <mxPoint x="1340" y="613" as="sourcePoint" />
            <mxPoint x="1567" y="613" as="targetPoint" />
          </mxGeometry>
        </mxCell>
        <mxCell id="h7QQ7sJ4i0Wc6xQ3Fgic-69" value="0..1" style="edgeLabel;resizable=0;html=1;align=left;verticalAlign=top;" parent="h7QQ7sJ4i0Wc6xQ3Fgic-68" connectable="0" vertex="1">
          <mxGeometry x="-1" relative="1" as="geometry" />
        </mxCell>
        <mxCell id="h7QQ7sJ4i0Wc6xQ3Fgic-70" value="0..n" style="edgeLabel;resizable=0;html=1;align=right;verticalAlign=top;" parent="h7QQ7sJ4i0Wc6xQ3Fgic-68" connectable="0" vertex="1">
          <mxGeometry x="1" relative="1" as="geometry" />
        </mxCell>
        <mxCell id="h7QQ7sJ4i0Wc6xQ3Fgic-71" value="Painel de controlo" style="swimlane;fontStyle=1;align=center;verticalAlign=top;childLayout=stackLayout;horizontal=1;startSize=26;horizontalStack=0;resizeParent=1;resizeParentMax=0;resizeLast=0;collapsible=1;marginBottom=0;whiteSpace=wrap;html=1;" parent="1" vertex="1">
          <mxGeometry x="840" y="760" width="160" height="138" as="geometry" />
        </mxCell>
        <mxCell id="h7QQ7sJ4i0Wc6xQ3Fgic-72" value="Estatísticas do Canal" style="text;strokeColor=none;fillColor=none;align=left;verticalAlign=top;spacingLeft=4;spacingRight=4;overflow=hidden;rotatable=0;points=[[0,0.5],[1,0.5]];portConstraint=eastwest;whiteSpace=wrap;html=1;" parent="h7QQ7sJ4i0Wc6xQ3Fgic-71" vertex="1">
          <mxGeometry y="26" width="160" height="26" as="geometry" />
        </mxCell>
        <mxCell id="h7QQ7sJ4i0Wc6xQ3Fgic-83" value="Definições" style="text;strokeColor=none;fillColor=none;align=left;verticalAlign=top;spacingLeft=4;spacingRight=4;overflow=hidden;rotatable=0;points=[[0,0.5],[1,0.5]];portConstraint=eastwest;whiteSpace=wrap;html=1;" parent="h7QQ7sJ4i0Wc6xQ3Fgic-71" vertex="1">
          <mxGeometry y="52" width="160" height="26" as="geometry" />
        </mxCell>
        <mxCell id="h7QQ7sJ4i0Wc6xQ3Fgic-73" value="" style="line;strokeWidth=1;fillColor=none;align=left;verticalAlign=middle;spacingTop=-1;spacingLeft=3;spacingRight=3;rotatable=0;labelPosition=right;points=[];portConstraint=eastwest;strokeColor=inherit;" parent="h7QQ7sJ4i0Wc6xQ3Fgic-71" vertex="1">
          <mxGeometry y="78" width="160" height="8" as="geometry" />
        </mxCell>
        <mxCell id="h7QQ7sJ4i0Wc6xQ3Fgic-74" value="+Upload()" style="text;strokeColor=none;fillColor=none;align=left;verticalAlign=top;spacingLeft=4;spacingRight=4;overflow=hidden;rotatable=0;points=[[0,0.5],[1,0.5]];portConstraint=eastwest;whiteSpace=wrap;html=1;" parent="h7QQ7sJ4i0Wc6xQ3Fgic-71" vertex="1">
          <mxGeometry y="86" width="160" height="26" as="geometry" />
        </mxCell>
        <mxCell id="h7QQ7sJ4i0Wc6xQ3Fgic-75" value="+Editar_Video()" style="text;strokeColor=none;fillColor=none;align=left;verticalAlign=top;spacingLeft=4;spacingRight=4;overflow=hidden;rotatable=0;points=[[0,0.5],[1,0.5]];portConstraint=eastwest;whiteSpace=wrap;html=1;" parent="h7QQ7sJ4i0Wc6xQ3Fgic-71" vertex="1">
          <mxGeometry y="112" width="160" height="26" as="geometry" />
        </mxCell>
        <mxCell id="h7QQ7sJ4i0Wc6xQ3Fgic-76" value="Aceder" style="endArrow=open;html=1;endSize=12;startArrow=diamondThin;startSize=14;startFill=0;edgeStyle=orthogonalEdgeStyle;rounded=0;" parent="1" edge="1">
          <mxGeometry relative="1" as="geometry">
            <mxPoint x="1000" y="823.4999999999998" as="sourcePoint" />
            <mxPoint x="1170" y="819.4999999999998" as="targetPoint" />
            <Array as="points">
              <mxPoint x="1086" y="824" />
              <mxPoint x="1086" y="831" />
              <mxPoint x="1171" y="831" />
              <mxPoint x="1171" y="820" />
            </Array>
          </mxGeometry>
        </mxCell>
        <mxCell id="h7QQ7sJ4i0Wc6xQ3Fgic-77" value="1.1" style="edgeLabel;resizable=0;html=1;align=left;verticalAlign=top;" parent="h7QQ7sJ4i0Wc6xQ3Fgic-76" connectable="0" vertex="1">
          <mxGeometry x="-1" relative="1" as="geometry" />
        </mxCell>
        <mxCell id="h7QQ7sJ4i0Wc6xQ3Fgic-78" value="1..1" style="edgeLabel;resizable=0;html=1;align=right;verticalAlign=top;" parent="h7QQ7sJ4i0Wc6xQ3Fgic-76" connectable="0" vertex="1">
          <mxGeometry x="1" relative="1" as="geometry" />
        </mxCell>
        <mxCell id="UotO8i-bKgpn9QtPY240-1" value="&lt;h1&gt;&lt;font style=&quot;font-size: 24px;&quot;&gt;Diagrama de casos de uso&lt;/font&gt;&lt;/h1&gt;&lt;p&gt;&lt;br&gt;&lt;/p&gt;" style="text;html=1;strokeColor=none;fillColor=none;spacing=5;spacingTop=-20;whiteSpace=wrap;overflow=hidden;rounded=0;" vertex="1" parent="1">
          <mxGeometry x="230" y="260" width="350" height="50" as="geometry" />
        </mxCell>
        <mxCell id="UotO8i-bKgpn9QtPY240-2" value="&lt;h1&gt;&lt;font style=&quot;font-size: 24px;&quot;&gt;Diagrama de classes&lt;/font&gt;&lt;/h1&gt;&lt;p&gt;&lt;br&gt;&lt;/p&gt;" style="text;html=1;strokeColor=none;fillColor=none;spacing=5;spacingTop=-20;whiteSpace=wrap;overflow=hidden;rounded=0;" vertex="1" parent="1">
          <mxGeometry x="1140" y="270" width="420" height="50" as="geometry" />
        </mxCell>
      </root>
    </mxGraphModel>
  </diagram>
  <diagram id="8AHBjlcOWaqMzF9aPbNz" name="Página-2">
    <mxGraphModel dx="1723" dy="738" grid="1" gridSize="10" guides="1" tooltips="1" connect="1" arrows="1" fold="1" page="1" pageScale="1" pageWidth="827" pageHeight="1169" math="0" shadow="0">
      <root>
        <mxCell id="0" />
        <mxCell id="1" parent="0" />
        <mxCell id="2gMA1mGJObzo41FmEo1e-1" value="Alternativa 1" style="shape=umlFrame;whiteSpace=wrap;html=1;pointerEvents=0;recursiveResize=0;container=1;collapsible=0;width=170;" vertex="1" parent="1">
          <mxGeometry x="80" y="1120" width="1470" height="290" as="geometry" />
        </mxCell>
        <mxCell id="2gMA1mGJObzo41FmEo1e-2" value="Existe vídeo" style="text;html=1;" vertex="1" parent="2gMA1mGJObzo41FmEo1e-1">
          <mxGeometry width="100" height="20" relative="1" as="geometry">
            <mxPoint x="20" y="40" as="offset" />
          </mxGeometry>
        </mxCell>
        <mxCell id="2gMA1mGJObzo41FmEo1e-3" value="" style="line;strokeWidth=1;dashed=1;labelPosition=center;verticalLabelPosition=bottom;align=left;verticalAlign=top;spacingLeft=20;spacingTop=15;html=1;whiteSpace=wrap;" vertex="1" parent="2gMA1mGJObzo41FmEo1e-1">
          <mxGeometry y="125" width="1470" height="10" as="geometry" />
        </mxCell>
        <mxCell id="B-sZPAXLkflRRbtCiP4l-4" value="" style="html=1;verticalAlign=bottom;labelBackgroundColor=none;endArrow=block;endFill=1;rounded=0;entryX=0.144;entryY=0.4;entryDx=0;entryDy=0;entryPerimeter=0;" edge="1" parent="2gMA1mGJObzo41FmEo1e-1">
          <mxGeometry width="160" relative="1" as="geometry">
            <mxPoint x="400" y="80" as="sourcePoint" />
            <mxPoint x="201" y="81.88000000000011" as="targetPoint" />
          </mxGeometry>
        </mxCell>
        <mxCell id="sNSro7NdCw12HZJUFOjx-2" value="" style="html=1;verticalAlign=bottom;labelBackgroundColor=none;endArrow=block;endFill=1;rounded=0;" edge="1" parent="2gMA1mGJObzo41FmEo1e-1">
          <mxGeometry width="160" relative="1" as="geometry">
            <mxPoint x="1236" y="50" as="sourcePoint" />
            <mxPoint x="870" y="52" as="targetPoint" />
            <Array as="points">
              <mxPoint x="1015" y="52" />
            </Array>
          </mxGeometry>
        </mxCell>
        <mxCell id="sNSro7NdCw12HZJUFOjx-3" value="" style="html=1;verticalAlign=bottom;labelBackgroundColor=none;endArrow=block;endFill=1;rounded=0;" edge="1" parent="2gMA1mGJObzo41FmEo1e-1">
          <mxGeometry width="160" relative="1" as="geometry">
            <mxPoint x="836" y="68" as="sourcePoint" />
            <mxPoint x="470" y="68" as="targetPoint" />
          </mxGeometry>
        </mxCell>
        <mxCell id="0uiJ12BkkyEMt3wWv-X_-2" value="Dados OK" style="text;html=1;align=center;verticalAlign=middle;resizable=0;points=[];autosize=1;strokeColor=none;fillColor=none;" vertex="1" parent="2gMA1mGJObzo41FmEo1e-1">
          <mxGeometry x="1121" y="20" width="80" height="30" as="geometry" />
        </mxCell>
        <mxCell id="0uiJ12BkkyEMt3wWv-X_-3" value="Devolve o vídeo" style="text;html=1;align=center;verticalAlign=middle;resizable=0;points=[];autosize=1;strokeColor=none;fillColor=none;" vertex="1" parent="2gMA1mGJObzo41FmEo1e-1">
          <mxGeometry x="620" y="39" width="110" height="30" as="geometry" />
        </mxCell>
        <mxCell id="0uiJ12BkkyEMt3wWv-X_-4" value="Aguarda execução" style="text;html=1;align=center;verticalAlign=middle;resizable=0;points=[];autosize=1;strokeColor=none;fillColor=none;" vertex="1" parent="2gMA1mGJObzo41FmEo1e-1">
          <mxGeometry x="260" y="50" width="120" height="30" as="geometry" />
        </mxCell>
        <mxCell id="2gMA1mGJObzo41FmEo1e-15" value="YOUTUBE" style="shape=umlLifeline;perimeter=lifelinePerimeter;whiteSpace=wrap;html=1;container=1;dropTarget=0;collapsible=0;recursiveResize=0;outlineConnect=0;portConstraint=eastwest;newEdgeStyle={&quot;edgeStyle&quot;:&quot;elbowEdgeStyle&quot;,&quot;elbow&quot;:&quot;vertical&quot;,&quot;curved&quot;:0,&quot;rounded&quot;:0};" vertex="1" parent="1">
          <mxGeometry x="500" y="970" width="100" height="480" as="geometry" />
        </mxCell>
        <mxCell id="2gMA1mGJObzo41FmEo1e-16" value="" style="html=1;points=[[0,0,0,0,5],[0,1,0,0,-5],[1,0,0,0,5],[1,1,0,0,-5]];perimeter=orthogonalPerimeter;outlineConnect=0;targetShapes=umlLifeline;portConstraint=eastwest;newEdgeStyle={&quot;curved&quot;:0,&quot;rounded&quot;:0};fillColor=#808080;" vertex="1" parent="2gMA1mGJObzo41FmEo1e-15">
          <mxGeometry x="45" y="90" width="10" height="390" as="geometry" />
        </mxCell>
        <mxCell id="2gMA1mGJObzo41FmEo1e-19" value="BACKEND" style="shape=umlLifeline;perimeter=lifelinePerimeter;whiteSpace=wrap;html=1;container=1;dropTarget=0;collapsible=0;recursiveResize=0;outlineConnect=0;portConstraint=eastwest;newEdgeStyle={&quot;edgeStyle&quot;:&quot;elbowEdgeStyle&quot;,&quot;elbow&quot;:&quot;vertical&quot;,&quot;curved&quot;:0,&quot;rounded&quot;:0};" vertex="1" parent="1">
          <mxGeometry x="900" y="970" width="100" height="470" as="geometry" />
        </mxCell>
        <mxCell id="2gMA1mGJObzo41FmEo1e-20" value="" style="html=1;points=[[0,0,0,0,5],[0,1,0,0,-5],[1,0,0,0,5],[1,1,0,0,-5]];perimeter=orthogonalPerimeter;outlineConnect=0;targetShapes=umlLifeline;portConstraint=eastwest;newEdgeStyle={&quot;curved&quot;:0,&quot;rounded&quot;:0};fillColor=#808080;" vertex="1" parent="2gMA1mGJObzo41FmEo1e-19">
          <mxGeometry x="45" y="90" width="10" height="380" as="geometry" />
        </mxCell>
        <mxCell id="2gMA1mGJObzo41FmEo1e-21" value="Actor" style="shape=umlActor;verticalLabelPosition=bottom;verticalAlign=top;html=1;" vertex="1" parent="1">
          <mxGeometry x="260" y="970" width="30" height="60" as="geometry" />
        </mxCell>
        <mxCell id="2gMA1mGJObzo41FmEo1e-26" value="BASE DE DADOS" style="shape=umlLifeline;perimeter=lifelinePerimeter;whiteSpace=wrap;html=1;container=1;dropTarget=0;collapsible=0;recursiveResize=0;outlineConnect=0;portConstraint=eastwest;newEdgeStyle={&quot;edgeStyle&quot;:&quot;elbowEdgeStyle&quot;,&quot;elbow&quot;:&quot;vertical&quot;,&quot;curved&quot;:0,&quot;rounded&quot;:0};" vertex="1" parent="1">
          <mxGeometry x="1440" y="970" width="100" height="470" as="geometry" />
        </mxCell>
        <mxCell id="2gMA1mGJObzo41FmEo1e-27" value="" style="html=1;points=[[0,0,0,0,5],[0,1,0,0,-5],[1,0,0,0,5],[1,1,0,0,-5]];perimeter=orthogonalPerimeter;outlineConnect=0;targetShapes=umlLifeline;portConstraint=eastwest;newEdgeStyle={&quot;curved&quot;:0,&quot;rounded&quot;:0};fillColor=#808080;" vertex="1" parent="2gMA1mGJObzo41FmEo1e-26">
          <mxGeometry x="45" y="85" width="10" height="385" as="geometry" />
        </mxCell>
        <mxCell id="B-sZPAXLkflRRbtCiP4l-6" value="" style="html=1;verticalAlign=bottom;labelBackgroundColor=none;endArrow=block;endFill=1;rounded=0;" edge="1" parent="1">
          <mxGeometry width="160" relative="1" as="geometry">
            <mxPoint x="320.5" y="1064.5" as="sourcePoint" />
            <mxPoint x="550" y="1064.5" as="targetPoint" />
          </mxGeometry>
        </mxCell>
        <mxCell id="B-sZPAXLkflRRbtCiP4l-7" value="" style="html=1;verticalAlign=bottom;labelBackgroundColor=none;endArrow=block;endFill=1;rounded=0;" edge="1" parent="1" target="2gMA1mGJObzo41FmEo1e-19">
          <mxGeometry width="160" relative="1" as="geometry">
            <mxPoint x="630" y="1070" as="sourcePoint" />
            <mxPoint x="853" y="1070" as="targetPoint" />
          </mxGeometry>
        </mxCell>
        <mxCell id="B-sZPAXLkflRRbtCiP4l-8" value="" style="html=1;verticalAlign=bottom;labelBackgroundColor=none;endArrow=block;endFill=1;rounded=0;" edge="1" parent="1">
          <mxGeometry width="160" relative="1" as="geometry">
            <mxPoint x="1130" y="1080" as="sourcePoint" />
            <mxPoint x="1489.5" y="1080" as="targetPoint" />
          </mxGeometry>
        </mxCell>
        <mxCell id="P_kkqGpmIRcvAhjW7ewL-1" value="Tratar os dados da solicitação" style="text;html=1;align=center;verticalAlign=middle;resizable=0;points=[];autosize=1;strokeColor=none;fillColor=none;" vertex="1" parent="1">
          <mxGeometry x="665" y="1040" width="180" height="30" as="geometry" />
        </mxCell>
        <mxCell id="P_kkqGpmIRcvAhjW7ewL-2" value="&lt;font style=&quot;font-size: 24px;&quot;&gt;DIAGRAMA DE SEQUÊNCIA - CASO DE USO PESQUISAR VÍDEO&lt;/font&gt;" style="text;html=1;align=center;verticalAlign=middle;resizable=0;points=[];autosize=1;strokeColor=none;fillColor=none;" vertex="1" parent="1">
          <mxGeometry x="460" y="880" width="750" height="40" as="geometry" />
        </mxCell>
        <mxCell id="sNSro7NdCw12HZJUFOjx-1" value="Buscar dados solicitados&amp;nbsp;" style="text;html=1;align=center;verticalAlign=middle;resizable=0;points=[];autosize=1;strokeColor=none;fillColor=none;" vertex="1" parent="1">
          <mxGeometry x="1190" y="1050" width="160" height="30" as="geometry" />
        </mxCell>
        <mxCell id="DdOm-G642APDwITk2rtk-1" value="Pesquisar vídeo" style="text;html=1;align=center;verticalAlign=middle;resizable=0;points=[];autosize=1;strokeColor=none;fillColor=none;" vertex="1" parent="1">
          <mxGeometry x="375" y="1038" width="110" height="30" as="geometry" />
        </mxCell>
        <mxCell id="er5qQm2IPGmq7TVSPtQh-1" value="&lt;font style=&quot;font-size: 24px;&quot;&gt;DIAGRAMA DE SEQUÊNCIA - CASO DE USO UPLOAD&lt;/font&gt;" style="text;html=1;align=center;verticalAlign=middle;resizable=0;points=[];autosize=1;strokeColor=none;fillColor=none;" vertex="1" parent="1">
          <mxGeometry x="400" y="1530" width="630" height="40" as="geometry" />
        </mxCell>
        <mxCell id="er5qQm2IPGmq7TVSPtQh-6" value="Alternativa 1" style="shape=umlFrame;whiteSpace=wrap;html=1;pointerEvents=0;recursiveResize=0;container=1;collapsible=0;width=170;" vertex="1" parent="1">
          <mxGeometry x="80" y="1780" width="1470" height="300" as="geometry" />
        </mxCell>
        <mxCell id="er5qQm2IPGmq7TVSPtQh-7" value="UPLOAD OK" style="text;html=1;" vertex="1" parent="er5qQm2IPGmq7TVSPtQh-6">
          <mxGeometry width="100" height="20" relative="1" as="geometry">
            <mxPoint x="20" y="60" as="offset" />
          </mxGeometry>
        </mxCell>
        <mxCell id="er5qQm2IPGmq7TVSPtQh-8" value="" style="line;strokeWidth=1;dashed=1;labelPosition=center;verticalLabelPosition=bottom;align=left;verticalAlign=top;spacingLeft=20;spacingTop=15;html=1;whiteSpace=wrap;" vertex="1" parent="er5qQm2IPGmq7TVSPtQh-6">
          <mxGeometry y="125" width="1470" height="10" as="geometry" />
        </mxCell>
        <mxCell id="er5qQm2IPGmq7TVSPtQh-9" value="" style="html=1;verticalAlign=bottom;labelBackgroundColor=none;endArrow=block;endFill=1;rounded=0;entryX=0.144;entryY=0.4;entryDx=0;entryDy=0;entryPerimeter=0;" edge="1" parent="er5qQm2IPGmq7TVSPtQh-6">
          <mxGeometry width="160" relative="1" as="geometry">
            <mxPoint x="400" y="80" as="sourcePoint" />
            <mxPoint x="201" y="81.88000000000011" as="targetPoint" />
          </mxGeometry>
        </mxCell>
        <mxCell id="er5qQm2IPGmq7TVSPtQh-10" value="" style="html=1;verticalAlign=bottom;labelBackgroundColor=none;endArrow=block;endFill=1;rounded=0;" edge="1" parent="er5qQm2IPGmq7TVSPtQh-6">
          <mxGeometry width="160" relative="1" as="geometry">
            <mxPoint x="1236" y="50" as="sourcePoint" />
            <mxPoint x="870" y="52" as="targetPoint" />
            <Array as="points">
              <mxPoint x="1015" y="52" />
            </Array>
          </mxGeometry>
        </mxCell>
        <mxCell id="er5qQm2IPGmq7TVSPtQh-11" value="" style="html=1;verticalAlign=bottom;labelBackgroundColor=none;endArrow=block;endFill=1;rounded=0;" edge="1" parent="er5qQm2IPGmq7TVSPtQh-6">
          <mxGeometry width="160" relative="1" as="geometry">
            <mxPoint x="836" y="68" as="sourcePoint" />
            <mxPoint x="470" y="68" as="targetPoint" />
          </mxGeometry>
        </mxCell>
        <mxCell id="er5qQm2IPGmq7TVSPtQh-12" value="Dados OK" style="text;html=1;align=center;verticalAlign=middle;resizable=0;points=[];autosize=1;strokeColor=none;fillColor=none;" vertex="1" parent="er5qQm2IPGmq7TVSPtQh-6">
          <mxGeometry x="1161" y="20" width="80" height="30" as="geometry" />
        </mxCell>
        <mxCell id="er5qQm2IPGmq7TVSPtQh-13" value="Devolve resposta positiva" style="text;html=1;align=center;verticalAlign=middle;resizable=0;points=[];autosize=1;strokeColor=none;fillColor=none;" vertex="1" parent="er5qQm2IPGmq7TVSPtQh-6">
          <mxGeometry x="595" y="39" width="160" height="30" as="geometry" />
        </mxCell>
        <mxCell id="er5qQm2IPGmq7TVSPtQh-30" value="" style="line;strokeWidth=1;dashed=1;labelPosition=center;verticalLabelPosition=bottom;align=left;verticalAlign=top;spacingLeft=20;spacingTop=15;html=1;whiteSpace=wrap;direction=south;" vertex="1" parent="er5qQm2IPGmq7TVSPtQh-6">
          <mxGeometry x="190" y="-70" width="10" height="370" as="geometry" />
        </mxCell>
        <mxCell id="kqsaV3VpvBLWF7kcc2VF-11" value="UPLOAD NÃO OK" style="text;html=1;" vertex="1" parent="er5qQm2IPGmq7TVSPtQh-6">
          <mxGeometry x="20" y="190" width="100" height="20" as="geometry" />
        </mxCell>
        <mxCell id="kqsaV3VpvBLWF7kcc2VF-12" value="" style="html=1;verticalAlign=bottom;labelBackgroundColor=none;endArrow=block;endFill=1;rounded=0;" edge="1" parent="er5qQm2IPGmq7TVSPtQh-6">
          <mxGeometry width="160" relative="1" as="geometry">
            <mxPoint x="1236" y="190" as="sourcePoint" />
            <mxPoint x="870" y="192" as="targetPoint" />
            <Array as="points">
              <mxPoint x="1015" y="192" />
            </Array>
          </mxGeometry>
        </mxCell>
        <mxCell id="kqsaV3VpvBLWF7kcc2VF-13" value="" style="html=1;verticalAlign=bottom;labelBackgroundColor=none;endArrow=block;endFill=1;rounded=0;" edge="1" parent="er5qQm2IPGmq7TVSPtQh-6">
          <mxGeometry width="160" relative="1" as="geometry">
            <mxPoint x="836" y="220" as="sourcePoint" />
            <mxPoint x="470" y="220" as="targetPoint" />
          </mxGeometry>
        </mxCell>
        <mxCell id="kqsaV3VpvBLWF7kcc2VF-14" value="" style="html=1;verticalAlign=bottom;labelBackgroundColor=none;endArrow=block;endFill=1;rounded=0;entryX=0.144;entryY=0.4;entryDx=0;entryDy=0;entryPerimeter=0;" edge="1" parent="er5qQm2IPGmq7TVSPtQh-6">
          <mxGeometry width="160" relative="1" as="geometry">
            <mxPoint x="389" y="240" as="sourcePoint" />
            <mxPoint x="190" y="241.8800000000001" as="targetPoint" />
          </mxGeometry>
        </mxCell>
        <mxCell id="kqsaV3VpvBLWF7kcc2VF-15" value="Vídeo não armazenado" style="text;html=1;align=center;verticalAlign=middle;resizable=0;points=[];autosize=1;strokeColor=none;fillColor=none;" vertex="1" parent="er5qQm2IPGmq7TVSPtQh-6">
          <mxGeometry x="1126" y="160" width="150" height="30" as="geometry" />
        </mxCell>
        <mxCell id="kqsaV3VpvBLWF7kcc2VF-16" value="Devolve resposta negativa" style="text;html=1;align=center;verticalAlign=middle;resizable=0;points=[];autosize=1;strokeColor=none;fillColor=none;" vertex="1" parent="er5qQm2IPGmq7TVSPtQh-6">
          <mxGeometry x="595" y="190" width="160" height="30" as="geometry" />
        </mxCell>
        <mxCell id="kqsaV3VpvBLWF7kcc2VF-17" value="Upload não realizado" style="text;html=1;align=center;verticalAlign=middle;resizable=0;points=[];autosize=1;strokeColor=none;fillColor=none;" vertex="1" parent="er5qQm2IPGmq7TVSPtQh-6">
          <mxGeometry x="240" y="210" width="140" height="30" as="geometry" />
        </mxCell>
        <mxCell id="er5qQm2IPGmq7TVSPtQh-15" value="YOUTUBE" style="shape=umlLifeline;perimeter=lifelinePerimeter;whiteSpace=wrap;html=1;container=1;dropTarget=0;collapsible=0;recursiveResize=0;outlineConnect=0;portConstraint=eastwest;newEdgeStyle={&quot;edgeStyle&quot;:&quot;elbowEdgeStyle&quot;,&quot;elbow&quot;:&quot;vertical&quot;,&quot;curved&quot;:0,&quot;rounded&quot;:0};" vertex="1" parent="1">
          <mxGeometry x="500" y="1630" width="100" height="480" as="geometry" />
        </mxCell>
        <mxCell id="er5qQm2IPGmq7TVSPtQh-16" value="" style="html=1;points=[[0,0,0,0,5],[0,1,0,0,-5],[1,0,0,0,5],[1,1,0,0,-5]];perimeter=orthogonalPerimeter;outlineConnect=0;targetShapes=umlLifeline;portConstraint=eastwest;newEdgeStyle={&quot;curved&quot;:0,&quot;rounded&quot;:0};fillColor=#808080;" vertex="1" parent="er5qQm2IPGmq7TVSPtQh-15">
          <mxGeometry x="45" y="90" width="10" height="390" as="geometry" />
        </mxCell>
        <mxCell id="er5qQm2IPGmq7TVSPtQh-17" value="BACKEND" style="shape=umlLifeline;perimeter=lifelinePerimeter;whiteSpace=wrap;html=1;container=1;dropTarget=0;collapsible=0;recursiveResize=0;outlineConnect=0;portConstraint=eastwest;newEdgeStyle={&quot;edgeStyle&quot;:&quot;elbowEdgeStyle&quot;,&quot;elbow&quot;:&quot;vertical&quot;,&quot;curved&quot;:0,&quot;rounded&quot;:0};" vertex="1" parent="1">
          <mxGeometry x="900" y="1630" width="100" height="470" as="geometry" />
        </mxCell>
        <mxCell id="er5qQm2IPGmq7TVSPtQh-18" value="" style="html=1;points=[[0,0,0,0,5],[0,1,0,0,-5],[1,0,0,0,5],[1,1,0,0,-5]];perimeter=orthogonalPerimeter;outlineConnect=0;targetShapes=umlLifeline;portConstraint=eastwest;newEdgeStyle={&quot;curved&quot;:0,&quot;rounded&quot;:0};fillColor=#808080;" vertex="1" parent="er5qQm2IPGmq7TVSPtQh-17">
          <mxGeometry x="45" y="90" width="10" height="380" as="geometry" />
        </mxCell>
        <mxCell id="er5qQm2IPGmq7TVSPtQh-19" value="Actor" style="shape=umlActor;verticalLabelPosition=bottom;verticalAlign=top;html=1;" vertex="1" parent="1">
          <mxGeometry x="260" y="1630" width="30" height="60" as="geometry" />
        </mxCell>
        <mxCell id="er5qQm2IPGmq7TVSPtQh-20" value="BASE DE DADOS" style="shape=umlLifeline;perimeter=lifelinePerimeter;whiteSpace=wrap;html=1;container=1;dropTarget=0;collapsible=0;recursiveResize=0;outlineConnect=0;portConstraint=eastwest;newEdgeStyle={&quot;edgeStyle&quot;:&quot;elbowEdgeStyle&quot;,&quot;elbow&quot;:&quot;vertical&quot;,&quot;curved&quot;:0,&quot;rounded&quot;:0};" vertex="1" parent="1">
          <mxGeometry x="1440" y="1630" width="100" height="470" as="geometry" />
        </mxCell>
        <mxCell id="er5qQm2IPGmq7TVSPtQh-21" value="" style="html=1;points=[[0,0,0,0,5],[0,1,0,0,-5],[1,0,0,0,5],[1,1,0,0,-5]];perimeter=orthogonalPerimeter;outlineConnect=0;targetShapes=umlLifeline;portConstraint=eastwest;newEdgeStyle={&quot;curved&quot;:0,&quot;rounded&quot;:0};fillColor=#808080;" vertex="1" parent="er5qQm2IPGmq7TVSPtQh-20">
          <mxGeometry x="45" y="85" width="10" height="385" as="geometry" />
        </mxCell>
        <mxCell id="er5qQm2IPGmq7TVSPtQh-22" value="" style="html=1;verticalAlign=bottom;labelBackgroundColor=none;endArrow=block;endFill=1;rounded=0;" edge="1" parent="1">
          <mxGeometry width="160" relative="1" as="geometry">
            <mxPoint x="320.5" y="1724.5" as="sourcePoint" />
            <mxPoint x="550" y="1724.5" as="targetPoint" />
          </mxGeometry>
        </mxCell>
        <mxCell id="er5qQm2IPGmq7TVSPtQh-23" value="" style="html=1;verticalAlign=bottom;labelBackgroundColor=none;endArrow=block;endFill=1;rounded=0;" edge="1" parent="1" target="er5qQm2IPGmq7TVSPtQh-17">
          <mxGeometry width="160" relative="1" as="geometry">
            <mxPoint x="630" y="1730" as="sourcePoint" />
            <mxPoint x="853" y="1730" as="targetPoint" />
          </mxGeometry>
        </mxCell>
        <mxCell id="er5qQm2IPGmq7TVSPtQh-24" value="" style="html=1;verticalAlign=bottom;labelBackgroundColor=none;endArrow=block;endFill=1;rounded=0;" edge="1" parent="1">
          <mxGeometry width="160" relative="1" as="geometry">
            <mxPoint x="1130" y="1740" as="sourcePoint" />
            <mxPoint x="1489.5" y="1740" as="targetPoint" />
          </mxGeometry>
        </mxCell>
        <mxCell id="er5qQm2IPGmq7TVSPtQh-25" value="Tratar os dados da solicitação" style="text;html=1;align=center;verticalAlign=middle;resizable=0;points=[];autosize=1;strokeColor=none;fillColor=none;" vertex="1" parent="1">
          <mxGeometry x="665" y="1700" width="180" height="30" as="geometry" />
        </mxCell>
        <mxCell id="er5qQm2IPGmq7TVSPtQh-26" value="Armazenar o vídeo" style="text;html=1;align=center;verticalAlign=middle;resizable=0;points=[];autosize=1;strokeColor=none;fillColor=none;" vertex="1" parent="1">
          <mxGeometry x="1210" y="1710" width="120" height="30" as="geometry" />
        </mxCell>
        <mxCell id="er5qQm2IPGmq7TVSPtQh-27" value="Upload do vídeo" style="text;html=1;align=center;verticalAlign=middle;resizable=0;points=[];autosize=1;strokeColor=none;fillColor=none;" vertex="1" parent="1">
          <mxGeometry x="375" y="1698" width="110" height="30" as="geometry" />
        </mxCell>
        <mxCell id="kqsaV3VpvBLWF7kcc2VF-1" value="Upload com sucesso." style="text;html=1;align=center;verticalAlign=middle;resizable=0;points=[];autosize=1;strokeColor=none;fillColor=none;" vertex="1" parent="1">
          <mxGeometry x="320" y="1828" width="140" height="30" as="geometry" />
        </mxCell>
      </root>
    </mxGraphModel>
  </diagram>
</mxfile>
